<svg width="24" height="24" viewBox="0 0 24 24" fill="none" xmlns="http://www.w3.org/2000/svg">
<path d="M6.49187 2.25C6.0993 2.25 5.71258 2.39063 5.39031 2.64844L5.34344 2.67188L5.32 2.69531L2.97625 5.10938L2.99969 5.13281C2.27605 5.80078 2.0534 6.7998 2.36687 7.66406C2.3698 7.66992 2.36394 7.68164 2.36687 7.6875C3.00262 9.50684 4.62859 13.0195 7.80437 16.1953C10.9919 19.3828 14.5514 20.9443 16.3122 21.6328H16.3356C17.2468 21.9375 18.2341 21.7207 18.9372 21.1172L21.3044 18.75C21.9255 18.1289 21.9255 17.0508 21.3044 16.4297L18.2575 13.3828L18.2341 13.3359C17.613 12.7148 16.5114 12.7148 15.8903 13.3359L14.3903 14.8359C13.8483 14.5752 12.5563 13.9072 11.32 12.7266C10.0925 11.5547 9.46551 10.207 9.23406 9.67969L10.7341 8.17969C11.3639 7.54981 11.3757 6.50098 10.7106 5.88281L10.7341 5.85938L10.6637 5.78906L7.66375 2.69531L7.64031 2.67188L7.59344 2.64844C7.27117 2.39063 6.88445 2.25 6.49187 2.25ZM6.49187 3.75C6.54754 3.75 6.6032 3.77637 6.65594 3.82031L9.65594 6.89063L9.72625 6.96094C9.72039 6.95508 9.77019 7.03418 9.67937 7.125L7.80437 9L7.45281 9.32813L7.61687 9.79688C7.61687 9.79688 8.4782 12.1025 10.2887 13.8281L10.4528 13.9688C12.196 15.5596 14.2497 16.4297 14.2497 16.4297L14.7184 16.6406L16.945 14.4141C17.0739 14.2852 17.0505 14.2852 17.1794 14.4141L20.2497 17.4844C20.3786 17.6133 20.3786 17.5664 20.2497 17.6953L17.9528 19.9922C17.6071 20.2881 17.2409 20.3496 16.8044 20.2031C15.1052 19.5352 11.8034 18.085 8.85906 15.1406C5.89129 12.1729 4.34148 8.80664 3.77312 7.17188C3.65887 6.86719 3.7409 6.41602 4.0075 6.1875L4.05437 6.14063L6.32781 3.82031C6.38055 3.77637 6.43621 3.75 6.49187 3.75Z" fill="#525252"/>
</svg>
