<svg width="19" height="19" viewBox="0 0 19 19" fill="none" xmlns="http://www.w3.org/2000/svg">
<path d="M16.5 0.5H2.5C1.395 0.5 0.5 1.395 0.5 2.5V16.5C0.5 17.605 1.395 18.5 2.5 18.5H16.5C17.605 18.5 18.5 17.605 18.5 16.5V2.5C18.5 1.395 17.605 0.5 16.5 0.5ZM8.207 14.207C7.816 14.598 7.183 14.598 6.793 14.207L3.5 10.914C3.11 10.524 3.11 9.89 3.5 9.5C3.89 9.11 4.524 9.11 4.914 9.5L7.5 12.086L14.086 5.5C14.476 5.11 15.11 5.11 15.5 5.5C15.89 5.89 15.89 6.524 15.5 6.914L8.207 14.207Z" fill="#009DD1"/>
</svg>
