<svg width="18" height="18" viewBox="0 0 18 18" fill="none" xmlns="http://www.w3.org/2000/svg">
<path d="M0.5455 16.7825C0.5555 16.816 0.563 16.85 0.5765 16.8825C0.5905 16.917 0.61 16.948 0.628 16.9805C0.6415 17.005 0.6525 17.031 0.6685 17.0545C0.742 17.1645 0.836 17.2585 0.946 17.332C0.97 17.348 0.9955 17.3585 1.02 17.3725C1.0525 17.3905 1.0835 17.41 1.118 17.424C1.1505 17.4375 1.1845 17.445 1.218 17.455C1.247 17.4635 1.2745 17.4745 1.3045 17.4805C1.369 17.493 1.4345 17.5 1.5 17.5H8.5C9.052 17.5 9.5 17.052 9.5 16.5C9.5 15.948 9.052 15.5 8.5 15.5H3.914L15.5 3.914V8.5C15.5 9.052 15.948 9.5 16.5 9.5C17.052 9.5 17.5 9.052 17.5 8.5V1.5C17.5 1.4345 17.493 1.369 17.4805 1.304C17.4745 1.274 17.4635 1.2465 17.455 1.2175C17.445 1.184 17.4375 1.15 17.424 1.1175C17.41 1.083 17.3905 1.052 17.3725 1.0195C17.359 0.995 17.348 0.969 17.332 0.9455C17.2585 0.8355 17.1645 0.7415 17.0545 0.668C17.031 0.652 17.005 0.6415 16.9805 0.6275C16.948 0.6095 16.917 0.59 16.8825 0.576C16.85 0.5625 16.816 0.555 16.7825 0.545C16.7535 0.5365 16.726 0.5255 16.696 0.5195C16.631 0.507 16.5655 0.5 16.5 0.5H9.5C8.948 0.5 8.5 0.948 8.5 1.5C8.5 2.052 8.948 2.5 9.5 2.5H14.086L2.5 14.086V9.5C2.5 8.948 2.052 8.5 1.5 8.5C0.948 8.5 0.5 8.948 0.5 9.5V16.5C0.5 16.5655 0.507 16.631 0.5195 16.696C0.5255 16.726 0.537 16.7535 0.5455 16.7825Z" fill="#5B5B5B"/>
</svg>
